<mxfile host="Electron" modified="2024-05-31T06:50:36.677Z" agent="Mozilla/5.0 (Windows NT 10.0; Win64; x64) AppleWebKit/537.36 (KHTML, like Gecko) draw.io/22.1.2 Chrome/114.0.5735.289 Electron/25.9.4 Safari/537.36" etag="sKmhycp2jjrfu_NAiwgR" version="22.1.2" type="device">
  <diagram name="Страница — 1" id="AcPP07hP2sU-9foMNCrC">
    <mxGraphModel dx="2100" dy="1258" grid="1" gridSize="10" guides="1" tooltips="1" connect="1" arrows="1" fold="1" page="1" pageScale="1" pageWidth="827" pageHeight="1169" math="0" shadow="0">
      <root>
        <mxCell id="0" />
        <mxCell id="1" parent="0" />
        <mxCell id="2I-v5KVbdCzpGImUqAZ6-1" value="" style="shape=waypoint;sketch=0;fillStyle=solid;size=6;pointerEvents=1;points=[];fillColor=none;resizable=0;rotatable=0;perimeter=centerPerimeter;snapToPoint=1;strokeWidth=19;" vertex="1" parent="1">
          <mxGeometry x="115" y="293" width="20" height="20" as="geometry" />
        </mxCell>
        <mxCell id="2I-v5KVbdCzpGImUqAZ6-10" value="" style="rounded=0;whiteSpace=wrap;html=1;" vertex="1" parent="1">
          <mxGeometry x="240" y="270" width="250" height="210" as="geometry" />
        </mxCell>
        <mxCell id="2I-v5KVbdCzpGImUqAZ6-11" value="Авторизация" style="text;html=1;strokeColor=none;fillColor=none;align=center;verticalAlign=middle;whiteSpace=wrap;rounded=0;" vertex="1" parent="1">
          <mxGeometry x="335" y="270" width="60" height="30" as="geometry" />
        </mxCell>
        <mxCell id="2I-v5KVbdCzpGImUqAZ6-8" style="edgeStyle=orthogonalEdgeStyle;rounded=0;orthogonalLoop=1;jettySize=auto;html=1;entryX=0.5;entryY=0;entryDx=0;entryDy=0;" edge="1" parent="1" source="2I-v5KVbdCzpGImUqAZ6-3" target="2I-v5KVbdCzpGImUqAZ6-4">
          <mxGeometry relative="1" as="geometry" />
        </mxCell>
        <mxCell id="2I-v5KVbdCzpGImUqAZ6-3" value="Ввод логина и пароля" style="rounded=1;whiteSpace=wrap;html=1;" vertex="1" parent="1">
          <mxGeometry x="250" y="300" width="120" height="40" as="geometry" />
        </mxCell>
        <mxCell id="2I-v5KVbdCzpGImUqAZ6-7" style="edgeStyle=orthogonalEdgeStyle;rounded=0;orthogonalLoop=1;jettySize=auto;html=1;entryX=0.5;entryY=0;entryDx=0;entryDy=0;" edge="1" parent="1" source="2I-v5KVbdCzpGImUqAZ6-4" target="2I-v5KVbdCzpGImUqAZ6-5">
          <mxGeometry relative="1" as="geometry" />
        </mxCell>
        <mxCell id="2I-v5KVbdCzpGImUqAZ6-4" value="Обращение к БД" style="rounded=1;whiteSpace=wrap;html=1;" vertex="1" parent="1">
          <mxGeometry x="250" y="360" width="120" height="40" as="geometry" />
        </mxCell>
        <mxCell id="2I-v5KVbdCzpGImUqAZ6-9" style="edgeStyle=orthogonalEdgeStyle;rounded=0;orthogonalLoop=1;jettySize=auto;html=1;entryX=1;entryY=0.5;entryDx=0;entryDy=0;" edge="1" parent="1" source="2I-v5KVbdCzpGImUqAZ6-5" target="2I-v5KVbdCzpGImUqAZ6-3">
          <mxGeometry relative="1" as="geometry">
            <Array as="points">
              <mxPoint x="400" y="440" />
              <mxPoint x="400" y="320" />
            </Array>
          </mxGeometry>
        </mxCell>
        <mxCell id="2I-v5KVbdCzpGImUqAZ6-51" style="edgeStyle=orthogonalEdgeStyle;rounded=0;orthogonalLoop=1;jettySize=auto;html=1;entryX=0.5;entryY=0;entryDx=0;entryDy=0;" edge="1" parent="1" source="2I-v5KVbdCzpGImUqAZ6-5" target="2I-v5KVbdCzpGImUqAZ6-48">
          <mxGeometry relative="1" as="geometry" />
        </mxCell>
        <mxCell id="2I-v5KVbdCzpGImUqAZ6-5" value="Проверка данных" style="rounded=1;whiteSpace=wrap;html=1;" vertex="1" parent="1">
          <mxGeometry x="250" y="420" width="120" height="40" as="geometry" />
        </mxCell>
        <mxCell id="2I-v5KVbdCzpGImUqAZ6-12" value="Данные не совпали" style="text;html=1;strokeColor=none;fillColor=none;align=center;verticalAlign=middle;whiteSpace=wrap;rounded=0;" vertex="1" parent="1">
          <mxGeometry x="400" y="355" width="80" height="30" as="geometry" />
        </mxCell>
        <mxCell id="2I-v5KVbdCzpGImUqAZ6-13" style="edgeStyle=orthogonalEdgeStyle;rounded=0;orthogonalLoop=1;jettySize=auto;html=1;entryX=-0.012;entryY=0.159;entryDx=0;entryDy=0;entryPerimeter=0;" edge="1" parent="1" source="2I-v5KVbdCzpGImUqAZ6-1" target="2I-v5KVbdCzpGImUqAZ6-10">
          <mxGeometry relative="1" as="geometry" />
        </mxCell>
        <mxCell id="2I-v5KVbdCzpGImUqAZ6-18" value="" style="rounded=0;whiteSpace=wrap;html=1;fillColor=none;" vertex="1" parent="1">
          <mxGeometry x="530" y="488" width="360" height="280" as="geometry" />
        </mxCell>
        <mxCell id="2I-v5KVbdCzpGImUqAZ6-30" style="edgeStyle=orthogonalEdgeStyle;rounded=0;orthogonalLoop=1;jettySize=auto;html=1;entryX=0.5;entryY=0;entryDx=0;entryDy=0;" edge="1" parent="1" source="2I-v5KVbdCzpGImUqAZ6-17" target="2I-v5KVbdCzpGImUqAZ6-19">
          <mxGeometry relative="1" as="geometry" />
        </mxCell>
        <mxCell id="2I-v5KVbdCzpGImUqAZ6-35" style="edgeStyle=orthogonalEdgeStyle;rounded=0;orthogonalLoop=1;jettySize=auto;html=1;entryX=0.25;entryY=0;entryDx=0;entryDy=0;" edge="1" parent="1" source="2I-v5KVbdCzpGImUqAZ6-17" target="2I-v5KVbdCzpGImUqAZ6-20">
          <mxGeometry relative="1" as="geometry">
            <Array as="points">
              <mxPoint x="752" y="568" />
            </Array>
          </mxGeometry>
        </mxCell>
        <mxCell id="2I-v5KVbdCzpGImUqAZ6-36" style="edgeStyle=orthogonalEdgeStyle;rounded=0;orthogonalLoop=1;jettySize=auto;html=1;entryX=0.75;entryY=0;entryDx=0;entryDy=0;" edge="1" parent="1" source="2I-v5KVbdCzpGImUqAZ6-17" target="2I-v5KVbdCzpGImUqAZ6-20">
          <mxGeometry relative="1" as="geometry">
            <Array as="points">
              <mxPoint x="812" y="558" />
            </Array>
          </mxGeometry>
        </mxCell>
        <mxCell id="2I-v5KVbdCzpGImUqAZ6-63" style="edgeStyle=orthogonalEdgeStyle;rounded=0;orthogonalLoop=1;jettySize=auto;html=1;entryX=0.75;entryY=0;entryDx=0;entryDy=0;" edge="1" parent="1" source="2I-v5KVbdCzpGImUqAZ6-17" target="2I-v5KVbdCzpGImUqAZ6-48">
          <mxGeometry relative="1" as="geometry">
            <Array as="points">
              <mxPoint x="610" y="524" />
              <mxPoint x="340" y="524" />
            </Array>
          </mxGeometry>
        </mxCell>
        <mxCell id="2I-v5KVbdCzpGImUqAZ6-17" value="Выбрать из списка" style="rounded=1;whiteSpace=wrap;html=1;" vertex="1" parent="1">
          <mxGeometry x="550" y="548" width="120" height="30" as="geometry" />
        </mxCell>
        <mxCell id="2I-v5KVbdCzpGImUqAZ6-34" style="edgeStyle=orthogonalEdgeStyle;rounded=0;orthogonalLoop=1;jettySize=auto;html=1;entryX=0;entryY=0.5;entryDx=0;entryDy=0;" edge="1" parent="1" source="2I-v5KVbdCzpGImUqAZ6-19" target="2I-v5KVbdCzpGImUqAZ6-20">
          <mxGeometry relative="1" as="geometry" />
        </mxCell>
        <mxCell id="2I-v5KVbdCzpGImUqAZ6-19" value="Ввод данных" style="rounded=1;whiteSpace=wrap;html=1;" vertex="1" parent="1">
          <mxGeometry x="550" y="638" width="120" height="30" as="geometry" />
        </mxCell>
        <mxCell id="2I-v5KVbdCzpGImUqAZ6-37" style="edgeStyle=orthogonalEdgeStyle;rounded=0;orthogonalLoop=1;jettySize=auto;html=1;entryX=0.5;entryY=0;entryDx=0;entryDy=0;" edge="1" parent="1" source="2I-v5KVbdCzpGImUqAZ6-20" target="2I-v5KVbdCzpGImUqAZ6-27">
          <mxGeometry relative="1" as="geometry" />
        </mxCell>
        <mxCell id="2I-v5KVbdCzpGImUqAZ6-58" style="edgeStyle=orthogonalEdgeStyle;rounded=0;orthogonalLoop=1;jettySize=auto;html=1;entryX=0.5;entryY=1;entryDx=0;entryDy=0;" edge="1" parent="1" source="2I-v5KVbdCzpGImUqAZ6-20" target="2I-v5KVbdCzpGImUqAZ6-19">
          <mxGeometry relative="1" as="geometry">
            <Array as="points">
              <mxPoint x="750" y="718" />
              <mxPoint x="610" y="718" />
            </Array>
          </mxGeometry>
        </mxCell>
        <mxCell id="2I-v5KVbdCzpGImUqAZ6-20" value="Обращение к БД" style="rounded=1;whiteSpace=wrap;html=1;" vertex="1" parent="1">
          <mxGeometry x="722" y="678" width="120" height="30" as="geometry" />
        </mxCell>
        <mxCell id="2I-v5KVbdCzpGImUqAZ6-22" value="Персонал" style="text;html=1;strokeColor=none;fillColor=none;align=center;verticalAlign=middle;whiteSpace=wrap;rounded=0;" vertex="1" parent="1">
          <mxGeometry x="677" y="488" width="60" height="30" as="geometry" />
        </mxCell>
        <mxCell id="2I-v5KVbdCzpGImUqAZ6-43" style="edgeStyle=orthogonalEdgeStyle;rounded=0;orthogonalLoop=1;jettySize=auto;html=1;entryX=0.75;entryY=0;entryDx=0;entryDy=0;" edge="1" parent="1" source="2I-v5KVbdCzpGImUqAZ6-27" target="2I-v5KVbdCzpGImUqAZ6-17">
          <mxGeometry relative="1" as="geometry">
            <Array as="points">
              <mxPoint x="860" y="743" />
              <mxPoint x="860" y="528" />
              <mxPoint x="640" y="528" />
            </Array>
          </mxGeometry>
        </mxCell>
        <mxCell id="2I-v5KVbdCzpGImUqAZ6-27" value="Обновить список" style="rounded=1;whiteSpace=wrap;html=1;" vertex="1" parent="1">
          <mxGeometry x="722" y="728" width="120" height="30" as="geometry" />
        </mxCell>
        <mxCell id="2I-v5KVbdCzpGImUqAZ6-31" value="Изменить данные" style="text;html=1;strokeColor=none;fillColor=none;align=center;verticalAlign=middle;whiteSpace=wrap;rounded=0;" vertex="1" parent="1">
          <mxGeometry x="544" y="593" width="70" height="30" as="geometry" />
        </mxCell>
        <mxCell id="2I-v5KVbdCzpGImUqAZ6-32" value="Уволить" style="text;html=1;strokeColor=none;fillColor=none;align=center;verticalAlign=middle;whiteSpace=wrap;rounded=0;" vertex="1" parent="1">
          <mxGeometry x="730" y="532" width="70" height="30" as="geometry" />
        </mxCell>
        <mxCell id="2I-v5KVbdCzpGImUqAZ6-33" value="Восстановить" style="text;html=1;strokeColor=none;fillColor=none;align=center;verticalAlign=middle;whiteSpace=wrap;rounded=0;" vertex="1" parent="1">
          <mxGeometry x="677" y="593" width="70" height="30" as="geometry" />
        </mxCell>
        <mxCell id="2I-v5KVbdCzpGImUqAZ6-42" value="" style="group" vertex="1" connectable="0" parent="1">
          <mxGeometry x="100" y="538" width="50" height="50" as="geometry" />
        </mxCell>
        <mxCell id="2I-v5KVbdCzpGImUqAZ6-40" value="" style="ellipse;whiteSpace=wrap;html=1;aspect=fixed;" vertex="1" parent="2I-v5KVbdCzpGImUqAZ6-42">
          <mxGeometry width="50" height="50" as="geometry" />
        </mxCell>
        <mxCell id="2I-v5KVbdCzpGImUqAZ6-41" value="" style="shape=waypoint;sketch=0;fillStyle=solid;size=6;pointerEvents=1;points=[];fillColor=none;resizable=0;rotatable=0;perimeter=centerPerimeter;snapToPoint=1;strokeWidth=19;" vertex="1" parent="2I-v5KVbdCzpGImUqAZ6-42">
          <mxGeometry x="15" y="15" width="20" height="20" as="geometry" />
        </mxCell>
        <mxCell id="2I-v5KVbdCzpGImUqAZ6-47" value="Данные совпали" style="text;html=1;strokeColor=none;fillColor=none;align=center;verticalAlign=middle;whiteSpace=wrap;rounded=0;" vertex="1" parent="1">
          <mxGeometry x="190" y="504" width="130" height="30" as="geometry" />
        </mxCell>
        <mxCell id="2I-v5KVbdCzpGImUqAZ6-52" style="edgeStyle=orthogonalEdgeStyle;rounded=0;orthogonalLoop=1;jettySize=auto;html=1;entryX=0;entryY=0.5;entryDx=0;entryDy=0;" edge="1" parent="1" source="2I-v5KVbdCzpGImUqAZ6-48" target="2I-v5KVbdCzpGImUqAZ6-17">
          <mxGeometry relative="1" as="geometry">
            <mxPoint x="400.0000000000002" y="564" as="targetPoint" />
          </mxGeometry>
        </mxCell>
        <mxCell id="2I-v5KVbdCzpGImUqAZ6-62" style="edgeStyle=orthogonalEdgeStyle;rounded=0;orthogonalLoop=1;jettySize=auto;html=1;entryX=1;entryY=0.5;entryDx=0;entryDy=0;" edge="1" parent="1" source="2I-v5KVbdCzpGImUqAZ6-48" target="2I-v5KVbdCzpGImUqAZ6-40">
          <mxGeometry relative="1" as="geometry">
            <mxPoint x="200" y="564" as="targetPoint" />
          </mxGeometry>
        </mxCell>
        <mxCell id="2I-v5KVbdCzpGImUqAZ6-48" value="Выбор функции" style="rounded=1;whiteSpace=wrap;html=1;" vertex="1" parent="1">
          <mxGeometry x="250" y="543" width="120" height="40" as="geometry" />
        </mxCell>
        <mxCell id="2I-v5KVbdCzpGImUqAZ6-56" value="Данные не валидны" style="text;html=1;strokeColor=none;fillColor=none;align=center;verticalAlign=middle;whiteSpace=wrap;rounded=0;" vertex="1" parent="1">
          <mxGeometry x="570" y="711" width="130" height="30" as="geometry" />
        </mxCell>
        <mxCell id="2I-v5KVbdCzpGImUqAZ6-57" value="Вернуться к выбору функционала" style="text;html=1;strokeColor=none;fillColor=none;align=center;verticalAlign=middle;whiteSpace=wrap;rounded=0;" vertex="1" parent="1">
          <mxGeometry x="392" y="495" width="130" height="30" as="geometry" />
        </mxCell>
        <mxCell id="2I-v5KVbdCzpGImUqAZ6-61" value="Завершение работы" style="text;html=1;strokeColor=none;fillColor=none;align=center;verticalAlign=middle;whiteSpace=wrap;rounded=0;" vertex="1" parent="1">
          <mxGeometry x="165" y="564" width="70" height="30" as="geometry" />
        </mxCell>
        <mxCell id="2I-v5KVbdCzpGImUqAZ6-64" value="Выбрано изменение персонала" style="text;html=1;strokeColor=none;fillColor=none;align=center;verticalAlign=middle;whiteSpace=wrap;rounded=0;" vertex="1" parent="1">
          <mxGeometry x="392" y="564" width="130" height="30" as="geometry" />
        </mxCell>
      </root>
    </mxGraphModel>
  </diagram>
</mxfile>
